<?xml version="1.0" encoding="UTF-8"?>
<svg version="1.1" xmlns="http://www.w3.org/2000/svg" width="315" height="203">
<path d="M0 0 C9.53079607 6.97580312 14.14612482 15.91298242 16.7109375 27.359375 C19.48478347 45.31411442 15.21412285 62.7861589 4.7890625 77.5703125 C-4.594858 89.79502282 -18.05243964 96.52346861 -33.0625 99.20703125 C-61.94393922 102.41944736 -61.94393922 102.41944736 -71.03515625 96.04296875 C-75.89273847 89.32042192 -73.33552163 80.00311737 -72.22265625 72.37109375 C-72.04355713 71.11143799 -71.86445801 69.85178223 -71.67993164 68.55395508 C-70.32412414 59.40552317 -68.6461092 50.35659352 -66.72265625 41.30859375 C-66.47765381 40.15391602 -66.23265137 38.99923828 -65.98022461 37.80957031 C-62.41754035 21.70066295 -62.41754035 21.70066295 -57.78515625 17.62109375 C-53.74044108 15.48638297 -50.32045876 15.21615603 -45.78515625 15.62109375 C-42.63409738 16.95154083 -41.20797542 17.84132385 -39.57373047 20.85522461 C-38.58819642 24.31191664 -39.06478476 26.22439058 -39.98046875 29.6875 C-40.28267334 30.88294434 -40.58487793 32.07838867 -40.89624023 33.31005859 C-41.06195526 33.94175964 -41.22767029 34.57346069 -41.39840698 35.2243042 C-45.40435315 50.56151907 -47.86069143 65.88414501 -49.78515625 81.62109375 C-46.6151069 81.22800763 -43.45022851 80.80229039 -40.28515625 80.37109375 C-38.95484375 80.20673828 -38.95484375 80.20673828 -37.59765625 80.0390625 C-29.14800744 78.85859686 -22.3412648 76.34690936 -16.78515625 69.62109375 C-8.44418702 57.68414544 -4.85065409 43.20697364 -7.34765625 28.68359375 C-8.97764193 23.0488088 -11.94586907 17.60313461 -16.81640625 14.203125 C-27.56124012 8.65029108 -40.77265078 9.15174912 -52.09765625 12.74609375 C-58.11031881 14.74785875 -63.70407683 17.37896005 -69.234375 20.484375 C-72.02286893 21.72702697 -73.76812387 21.95745209 -76.78515625 21.62109375 C-79.09765625 20.18359375 -79.09765625 20.18359375 -80.78515625 17.62109375 C-81.47468129 12.98169684 -81.52707584 8.56945795 -78.78515625 4.62109375 C-76.70988757 3.12033448 -74.7574035 1.85881249 -72.53515625 0.62109375 C-71.91906494 0.27296631 -71.30297363 -0.07516113 -70.66821289 -0.43383789 C-49.84199342 -11.70887698 -20.14580042 -13.09313771 0 0 Z " fill="#CC87CE" transform="translate(126.78515625,47.37890625)"/>
<path d="M0 0 C8.16387371 7.20693613 13.31913414 17.65756724 14.20483398 28.50976562 C14.88884726 47.48808828 12.39674915 64.50164393 -0.25 79.4375 C-4.92943499 84.28405767 -10.11099367 87.77527325 -16 91 C-16.70511719 91.39960938 -17.41023438 91.79921875 -18.13671875 92.2109375 C-32.83260849 99.65685497 -55.36179287 100.79193826 -71 96 C-74.25 94.1875 -74.25 94.1875 -76 91 C-76.85051787 81.80916529 -75.46315276 72.78105744 -73.875 63.75 C-73.54266357 61.8155603 -73.54266357 61.8155603 -73.20361328 59.84204102 C-71.68211324 51.15081764 -69.89894188 42.5261644 -67.875 33.9375 C-67.63378418 32.90399414 -67.39256836 31.87048828 -67.14404297 30.80566406 C-65.73973886 25.09821895 -64.47309534 20.44111566 -60.1875 16.2109375 C-57.33294964 14.63073998 -55.24925127 14.60063062 -52 14.625 C-50.96875 14.61726563 -49.9375 14.60953125 -48.875 14.6015625 C-45.56395362 15.06043034 -44.17166879 15.44202474 -42 18 C-41.1273643 24.24709295 -43.1156133 30.1079927 -44.6875 36.125 C-48.25642175 50.29697658 -50.68430982 64.57900055 -53 79 C-41.36911329 79.23508467 -29.91751716 78.26765761 -21 70 C-12.89707747 60.5163104 -9.83065028 49.39593581 -9.75 37.1875 C-9.729375 36.41857422 -9.70875 35.64964844 -9.6875 34.85742188 C-9.64032497 27.86962122 -11.23277781 22.62558725 -15.1875 16.75 C-22.19149491 9.90164942 -30.13519019 8.66053875 -39.60986328 8.61279297 C-51.5908108 8.82340018 -62.07005894 12.9805787 -72.3515625 18.9609375 C-75.68013141 20.26683622 -77.5958151 19.98013751 -81 19 C-83.27049195 16.35109272 -83.92505442 14.50320601 -84.4375 11.0625 C-83.75019648 6.25137539 -81.880858 3.49631011 -78.0703125 0.46484375 C-56.10980632 -13.99064095 -21.43029178 -15.46708016 0 0 Z " fill="#EC8F64" transform="translate(254,49)"/>
<path d="M0 0 C3.12813702 2.10967381 4.31095599 3.2946653 5.6875 6.8125 C6.43428074 12.4237275 6.07712157 17.11076685 2.6875 21.8125 C-1.87970563 25.28357628 -5.42496852 26.47146049 -11.1640625 26.20703125 C-14.55728492 25.58391222 -16.72407044 24.02213499 -19.3125 21.8125 C-22.19525991 17.48836013 -22.69551406 13.81184294 -21.75 8.75 C-20.47614014 4.19551476 -18.1794096 2.41674524 -14.3125 -0.1875 C-9.25449996 -1.87350001 -4.94491784 -1.77270639 0 0 Z " fill="#D98B9F" transform="translate(159.3125,121.1875)"/>
<path d="M0 0 C0 0.33 0 0.66 0 1 C-2.31 1.33 -4.62 1.66 -7 2 C-7 1.01 -7 0.02 -7 -1 C-11.60885109 -0.95575381 -16.21634425 -0.88582651 -20.82446289 -0.79248047 C-22.39075897 -0.76432306 -23.95719575 -0.74308247 -25.52368164 -0.72900391 C-27.78084066 -0.70750033 -30.03631739 -0.66081811 -32.29296875 -0.609375 C-33.33701118 -0.60753204 -33.33701118 -0.60753204 -34.40214539 -0.60565186 C-39.17984405 -0.46297634 -41.63518141 0.62531159 -45 4 C-45.33 4.66 -45.66 5.32 -46 6 C-50 6 -54 6 -58 6 C-58.33 7.65 -58.66 9.3 -59 11 C-61.31 11.66 -63.62 12.32 -66 13 C-66 14.98 -66 16.96 -66 19 C-66.66 19 -67.32 19 -68 19 C-67.34 19.99 -66.68 20.98 -66 22 C-63.5 22.25 -63.5 22.25 -61 22 C-60.34 22 -59.68 22 -59 22 C-58.67 20.02 -58.34 18.04 -58 16 C-57.01 16.33 -56.02 16.66 -55 17 C-52.78918149 17.10540926 -52.78918149 17.10540926 -50 16 C-49.34 16.33 -48.68 16.66 -48 17 C-47.67 16.01 -47.34 15.02 -47 14 C-36.77 14 -26.54 14 -16 14 C-15.505 14.99 -15.505 14.99 -15 16 C-16.258125 15.94199219 -17.51625 15.88398437 -18.8125 15.82421875 C-34.56395999 15.3199988 -46.59327028 17.95826323 -60.3515625 25.9609375 C-63.68013141 27.26683622 -65.5958151 26.98013751 -69 26 C-71.27049195 23.35109272 -71.92505442 21.50320601 -72.4375 18.0625 C-71.75019648 13.25137539 -69.880858 10.49631011 -66.0703125 7.46484375 C-48.07845947 -4.37827836 -20.15036846 -7.42381996 0 0 Z " fill="#D98E89" transform="translate(242,42)"/>
<path d="M0 0 C1.61648437 0.04060547 1.61648437 0.04060547 3.265625 0.08203125 C4.08546875 0.11683594 4.9053125 0.15164062 5.75 0.1875 C5.75 0.5175 5.75 0.8475 5.75 1.1875 C2.45 1.5175 -0.85 1.8475 -4.25 2.1875 C-4.25 3.5075 -4.25 4.8275 -4.25 6.1875 C-5.9 6.5175 -7.55 6.8475 -9.25 7.1875 C-9.31058594 7.86296875 -9.37117187 8.5384375 -9.43359375 9.234375 C-9.51738281 10.12640625 -9.60117188 11.0184375 -9.6875 11.9375 C-9.76871094 12.81921875 -9.84992188 13.7009375 -9.93359375 14.609375 C-10.21238465 16.88100452 -10.63790577 18.98601823 -11.25 21.1875 C-11.58 20.5275 -11.91 19.8675 -12.25 19.1875 C-12.25 22.02717231 -11.84732819 24.42485711 -11.25 27.1875 C-12.24 27.5175 -13.23 27.8475 -14.25 28.1875 C-14.25 28.8475 -14.25 29.5075 -14.25 30.1875 C-13.59 30.1875 -12.93 30.1875 -12.25 30.1875 C-12.58 30.8475 -12.91 31.5075 -13.25 32.1875 C-14.735 32.6825 -14.735 32.6825 -16.25 33.1875 C-16.78257191 35.74805758 -17.30131844 38.31016329 -17.8125 40.875 C-17.96396484 41.59623047 -18.11542969 42.31746094 -18.27148438 43.06054688 C-19.07143295 47.13470359 -19.30083788 50.10172475 -18.25 54.1875 C-18.57670903 56.18859278 -18.90977214 58.18866131 -19.25 60.1875 C-18.8922386 62.46400745 -18.8922386 62.46400745 -18.25 64.1875 C-19.735 64.6825 -19.735 64.6825 -21.25 65.1875 C-21.98334429 69.16504128 -21.98334429 69.16504128 -22.25 73.1875 C-21.59 73.1875 -20.93 73.1875 -20.25 73.1875 C-18.25 76.1875 -18.25 76.1875 -18.25 79.1875 C-14.66866164 80.29955912 -11.3218294 80.31674529 -7.5859375 80.3203125 C-6.29945313 80.32160156 -5.01296875 80.32289063 -3.6875 80.32421875 C-3.02105469 80.32212402 -2.35460937 80.3200293 -1.66796875 80.31787109 C0.3750749 80.3124998 2.41790049 80.31783733 4.4609375 80.32421875 C5.74484375 80.32292969 7.02875 80.32164062 8.3515625 80.3203125 C9.53057129 80.31918457 10.70958008 80.31805664 11.92431641 80.31689453 C14.70061842 80.38128681 14.70061842 80.38128681 16.75 79.1875 C18.29023996 79.11799459 19.83334988 79.10297643 21.375 79.125 C22.19226563 79.13402344 23.00953125 79.14304687 23.8515625 79.15234375 C24.47804687 79.16394531 25.10453125 79.17554688 25.75 79.1875 C15.58991693 85.96088871 -2.37069141 84.01373601 -14.0625 82.5 C-17.40043778 81.80556079 -19.48191881 81.05816067 -22.5 79.375 C-27.21825743 70.7810311 -23.74586178 58.15455782 -22.125 48.9375 C-21.79266357 47.0030603 -21.79266357 47.0030603 -21.45361328 45.02954102 C-19.93211324 36.33831764 -18.14894188 27.7136644 -16.125 19.125 C-15.88378418 18.09149414 -15.64256836 17.05798828 -15.39404297 15.99316406 C-13.98840924 10.28031504 -12.7057073 5.6485458 -8.453125 1.38671875 C-5.50968681 -0.21547189 -3.32856067 -0.10854002 0 0 Z " fill="#D48E84" transform="translate(202.25,63.8125)"/>
<path d="M0 0 C9.97511129 7.58913367 13.99580273 16.72203472 16 29 C17.6306336 46.68331546 13.09747143 64.00612107 2 78 C1.01 78.495 1.01 78.495 0 79 C0.33 77.35 0.66 75.7 1 74 C2.485 73.505 2.485 73.505 4 73 C3.835 72.401875 3.67 71.80375 3.5 71.1875 C2.77498866 68.01557539 2.96694502 66.09916494 4 63 C5.32 63 6.64 63 8 63 C8 61.35 8 59.7 8 58 C9.485 57.505 9.485 57.505 11 57 C11.73323796 54.98491642 11.73323796 54.98491642 12 53 C11.34 53 10.68 53 10 53 C10 51.68 10 50.36 10 49 C10.99 48.505 10.99 48.505 12 48 C11.01 47.67 10.02 47.34 9 47 C10.12451727 44.0280615 11.22293791 41.66559313 13 39 C13.45139459 36.9507906 13.45139459 36.9507906 13.625 34.8125 C13.74875 33.554375 13.8725 32.29625 14 31 C13.34 31 12.68 31 12 31 C10.875 27.6875 10.875 27.6875 10 24 C10.66 23.01 11.32 22.02 12 21 C11.360625 20.278125 10.72125 19.55625 10.0625 18.8125 C8 16 8 16 7.5 13.4375 C6.84146046 10.22711973 5.53365397 9.01201933 3 7 C2.01 7 1.02 7 0 7 C0 4.69 0 2.38 0 0 Z " fill="#C887A8" transform="translate(128,49)"/>
<path d="M0 0 C-1.375 2 -1.375 2 -3 4 C-3.66 4 -4.32 4 -5 4 C-5.33 4.66 -5.66 5.32 -6 6 C-6 5.34 -6 4.68 -6 4 C-7.98 4.99 -7.98 4.99 -10 6 C-10 5.34 -10 4.68 -10 4 C-16.63476458 4.34919814 -19.89204111 5.72599358 -25 10 C-25.33 10.66 -25.66 11.32 -26 12 C-26.66 12 -27.32 12 -28 12 C-28.33 12.66 -28.66 13.32 -29 14 C-29.515625 14.45375 -30.03125 14.9075 -30.5625 15.375 C-32.44171592 17.13773615 -32.44171592 17.13773615 -32 21 C-27.82978388 23.03164375 -25.40594062 23.07903196 -21.125 21.625 C-19.74332228 21.10060086 -18.36577601 20.56452075 -17 20 C-16.67 18.02 -16.34 16.04 -16 14 C-13.6875 13.6875 -13.6875 13.6875 -11 14 C-9.33203125 16.51953125 -9.33203125 16.51953125 -8 19 C-10.72379681 20.34538144 -13.45313508 21.67641535 -16.1875 23 C-16.95642578 23.3815625 -17.72535156 23.763125 -18.51757812 24.15625 C-25.83872956 27.67543009 -25.83872956 27.67543009 -30 27 C-32.3125 25.5625 -32.3125 25.5625 -34 23 C-34.68983751 18.3585007 -34.74048023 13.9506638 -32 10 C-29.90357802 8.45034359 -27.93985428 7.15013437 -25.6875 5.875 C-25.06883057 5.52244141 -24.45016113 5.16988281 -23.81274414 4.80664062 C-16.26863596 0.75143094 -8.4818291 -0.12450391 0 0 Z " fill="#B98ADE" transform="translate(80,42)"/>
<path d="M0 0 C0.66 0.33 1.32 0.66 2 1 C1.360625 1.7425 0.72125 2.485 0.0625 3.25 C-1.89751837 5.86335783 -2.45587504 6.91662523 -3 10 C-3.309375 11.03125 -3.61875 12.0625 -3.9375 13.125 C-5.25545261 17.68865681 -6.10812072 22.33824446 -7 27 C-7.33199382 28.66693401 -7.66495627 30.33367633 -8 32 C-7.01 32.33 -6.02 32.66 -5 33 C-5.165 33.5775 -5.33 34.155 -5.5 34.75 C-6.43952614 38.97786765 -5.76198421 42.80908684 -5 47 C-7.97 47.495 -7.97 47.495 -11 48 C-11.33575056 50.43718935 -11.66869285 52.87470615 -12 55.3125 C-12.09539063 56.00279297 -12.19078125 56.69308594 -12.2890625 57.40429688 C-12.68027442 60.29647073 -13 63.07764977 -13 66 C-13 67.32 -13 68.64 -13 70 C-13.66 70 -14.32 70 -15 70 C-15.33603443 61.4102572 -14.34220874 53.3288909 -12.875 44.875 C-12.65271729 43.5770752 -12.43043457 42.27915039 -12.20141602 40.94189453 C-10.67656473 32.20288473 -8.93304203 23.51978547 -6.9375 14.875 C-6.70466309 13.83327637 -6.47182617 12.79155273 -6.23193359 11.71826172 C-4.12282308 2.99680473 -4.12282308 2.99680473 0 0 Z M-12 63 C-10 64 -10 64 -10 64 Z " fill="#B586DB" transform="translate(69,65)"/>
<path d="M0 0 C0.66 0 1.32 0 2 0 C-1.46199896 22.09786569 -1.46199896 22.09786569 -11 31 C-11.71929687 31.68964844 -12.43859375 32.37929687 -13.1796875 33.08984375 C-14.35917969 34.19005859 -14.35917969 34.19005859 -15.5625 35.3125 C-16.30628906 36.00988281 -17.05007812 36.70726562 -17.81640625 37.42578125 C-20 39 -20 39 -24 39 C-23.67 37.68 -23.34 36.36 -23 35 C-22.01 35 -21.02 35 -20 35 C-20 34.01 -20 33.02 -20 32 C-18.02 31.67 -16.04 31.34 -14 31 C-14.66 29.35 -15.32 27.7 -16 26 C-15.360625 25.87625 -14.72125 25.7525 -14.0625 25.625 C-13.381875 25.41875 -12.70125 25.2125 -12 25 C-11.67 24.34 -11.34 23.68 -11 23 C-10.01 23.33 -9.02 23.66 -8 24 C-7.855625 22.906875 -7.71125 21.81375 -7.5625 20.6875 C-7 17 -7 17 -6 14 C-6.38932856 11.85744207 -6.38932856 11.85744207 -7 10 C-6.01 9.67 -5.02 9.34 -4 9 C-3.34 9.33 -2.68 9.66 -2 10 C-1.34 6.7 -0.68 3.4 0 0 Z " fill="#F0914C" transform="translate(264,96)"/>
<path d="M0 0 C0.33 0 0.66 0 1 0 C0.85820962 2.22942748 0.71140302 4.45853628 0.5625 6.6875 C0.48128906 7.92886719 0.40007812 9.17023438 0.31640625 10.44921875 C0.05508683 13.38180337 -0.34798379 16.13441617 -1 19 C7.07400625 19.49209519 14.21057324 18.03707231 22 16 C23.33307583 15.66563836 24.66628853 15.33181711 26 15 C26 15.66 26 16.32 26 17 C25.15695313 17.33773437 24.31390625 17.67546875 23.4453125 18.0234375 C22.34960938 18.46945313 21.25390625 18.91546875 20.125 19.375 C19.03445312 19.81585938 17.94390625 20.25671875 16.8203125 20.7109375 C13.93670638 21.83051338 13.93670638 21.83051338 12 24 C11.01 24 10.02 24 9 24 C9 24.66 9 25.32 9 26 C7.25 26.6875 7.25 26.6875 5 27 C2.9375 25.625 2.9375 25.625 1 24 C0.01 23.67 -0.98 23.34 -2 23 C-3.26114873 18.4794035 -2.76206101 14.38361961 -2.125 9.8125 C-2.03347656 9.08869141 -1.94195312 8.36488281 -1.84765625 7.61914062 C-1.14325221 2.28650442 -1.14325221 2.28650442 0 0 Z " fill="#E38F74" transform="translate(202,109)"/>
<path d="M0 0 C0 0.33 0 0.66 0 1 C-2.31 1.33 -4.62 1.66 -7 2 C-7 1.01 -7 0.02 -7 -1 C-11.60885109 -0.95575381 -16.21634425 -0.88582651 -20.82446289 -0.79248047 C-22.39075897 -0.76432306 -23.95719575 -0.74308247 -25.52368164 -0.72900391 C-27.78084066 -0.70750033 -30.03631739 -0.66081811 -32.29296875 -0.609375 C-32.98899704 -0.60814636 -33.68502533 -0.60691772 -34.40214539 -0.60565186 C-39.17984405 -0.46297634 -41.63518141 0.62531159 -45 4 C-45.33 4.66 -45.66 5.32 -46 6 C-48.66666667 6 -51.33333333 6 -54 6 C-54.66 5.34 -55.32 4.68 -56 4 C-39.43286659 -4.69774504 -17.76080438 -6.54345424 0 0 Z " fill="#DD9778" transform="translate(242,42)"/>
<path d="M0 0 C3.3950216 2.26334774 3.83309246 3.20961216 5 7 C5.25878906 9.49194336 5.25878906 9.49194336 5.265625 12.08984375 C5.26820312 13.03923828 5.27078125 13.98863281 5.2734375 14.96679688 C5.26570313 15.94712891 5.25796875 16.92746094 5.25 17.9375 C5.25773437 18.91396484 5.26546875 19.89042969 5.2734375 20.89648438 C5.25941873 26.06590509 4.83400921 30.1165866 3 35 C3.00515625 35.85078125 3.0103125 36.7015625 3.015625 37.578125 C2.99649314 40.54356378 2.18531703 42.17334654 0.75 44.75 C0.12351562 45.91789062 0.12351562 45.91789062 -0.515625 47.109375 C-2.29056425 49.3700871 -3.28673436 49.39456056 -6 50 C-6.33 50.99 -6.66 51.98 -7 53 C-7.99 52.67 -8.98 52.34 -10 52 C-9.10667969 51.17242187 -9.10667969 51.17242187 -8.1953125 50.328125 C1.53441842 40.00976268 2.91804488 26.50893622 3 13 C2.61110688 9.79811334 1.93216631 7.10722103 1 4 C0.66009726 2.66832624 0.32498495 1.3353927 0 0 Z " fill="#BD82AB" transform="translate(117,68)"/>
<path d="M0 0 C3.21812026 -0.56317104 5.28102157 -0.4751869 8.0390625 1.34765625 C12.06176812 4.7752425 15.57420413 8.2494831 18 13 C18.25 16.375 18.25 16.375 18 19 C17.67 18.34 17.34 17.68 17 17 C16.01 17 15.02 17 14 17 C12 13.25 12 13.25 12 11 C10.79252059 9.29209912 10.79252059 9.29209912 9 8 C7.68 8 6.36 8 5 8 C4.731875 7.360625 4.46375 6.72125 4.1875 6.0625 C3.11332248 3.66868314 3.11332248 3.66868314 0 3 C0 2.01 0 1.02 0 0 Z " fill="#E89352" transform="translate(245,47)"/>
<path d="M0 0 C1.65 0 3.3 0 5 0 C5 1.32 5 2.64 5 4 C4.34 4 3.68 4 3 4 C3.63979849 6.03241727 3.63979849 6.03241727 5 8 C7.55519921 8.81171228 7.55519921 8.81171228 10 9 C10 9.33 10 9.66 10 10 C4.62343913 10.27338445 1.43300242 10.38994303 -3 7 C-3.66 6.34 -4.32 5.68 -5 5 C-5 3.68 -5 2.36 -5 1 C-3.68 1.33 -2.36 1.66 -1 2 C-0.67 1.34 -0.34 0.68 0 0 Z " fill="#B889DC" transform="translate(59,136)"/>
<path d="M0 0 C8.56315064 1.70366348 15.54205372 4.46357205 23 9 C19.0149156 10.32836147 16.98943994 9.19683198 13 8 C10.67212073 7.63049535 8.33954855 7.28647533 6 7 C6 6.34 6 5.68 6 5 C4.68 5.33 3.36 5.66 2 6 C2 4.68 2 3.36 2 2 C1.34 2 0.68 2 0 2 C0 1.34 0 0.68 0 0 Z " fill="#CC8BBE" transform="translate(105,39)"/>
<path d="M0 0 C0.99 0.66 1.98 1.32 3 2 C2.34 2.66 1.68 3.32 1 4 C1.33 4.66 1.66 5.32 2 6 C4.52733235 6.65555119 4.52733235 6.65555119 7 7 C7 8.98 7 10.96 7 13 C2.50564071 11.58748708 0.2884223 9.2884223 -3 6 C-6.16645474 4.20679176 -6.16645474 4.20679176 -9 3 C-8.01 2.34 -7.02 1.68 -6 1 C-5.34 1.33 -4.68 1.66 -4 2 C-1.88316159 1.10836423 -1.88316159 1.10836423 0 0 Z " fill="#CB89BB" transform="translate(113,56)"/>
<path d="M0 0 C0.33 0 0.66 0 1 0 C1 5.61 1 11.22 1 17 C1.66 17 2.32 17 3 17 C5 20 5 20 5 23 C5.598125 23.12375 6.19625 23.2475 6.8125 23.375 C9 24 9 24 12 26 C7.5664407 25.77456478 4.8519328 25.4969608 1 23.25 C-3.1085065 16.57367693 -1.39146777 7.47913929 0 0 Z " fill="#CF8B89" transform="translate(179,120)"/>
<path d="M0 0 C0.66 0.33 1.32 0.66 2 1 C1.360625 1.7425 0.72125 2.485 0.0625 3.25 C-1.89751837 5.86335783 -2.45587504 6.91662523 -3 10 C-3.309375 11.03125 -3.61875 12.0625 -3.9375 13.125 C-5.01230889 16.85100416 -5.75676725 20.61636705 -6.4921875 24.421875 C-7.25567673 28.29805107 -8.12985542 32.14650256 -9 36 C-9.66 36 -10.32 36 -11 36 C-10.24056406 31.99775007 -9.46539637 27.99869939 -8.6875 24 C-8.47416016 22.87464844 -8.26082031 21.74929687 -8.04101562 20.58984375 C-4.8854238 4.48219595 -4.8854238 4.48219595 0 0 Z " fill="#B286D2" transform="translate(69,65)"/>
<path d="M0 0 C0.33 0 0.66 0 1 0 C0.32418477 6.08233706 -0.73638028 12.01314152 -2 18 C-3.32 17.34 -4.64 16.68 -6 16 C-6.30192308 8.15 -6.30192308 8.15 -4 5 C-3.01 4.67 -2.02 4.34 -1 4 C-0.26676204 1.98491642 -0.26676204 1.98491642 0 0 Z " fill="#E78E73" transform="translate(206,83)"/>
<path d="M0 0 C-0.99 0.66 -1.98 1.32 -3 2 C-6.53678072 4.54045287 -6.53678072 4.54045287 -9 8 C-11.66666667 8 -14.33333333 8 -17 8 C-17.66 7.34 -18.32 6.68 -19 6 C-6.42424242 -0.60227273 -6.42424242 -0.60227273 0 0 Z " fill="#E1907F" transform="translate(205,40)"/>
<path d="M0 0 C0.99 0.33 1.98 0.66 3 1 C2.34 1 1.68 1 1 1 C1 2.32 1 3.64 1 5 C-0.65 5.33 -2.3 5.66 -4 6 C-4.06058594 6.67546875 -4.12117187 7.3509375 -4.18359375 8.046875 C-4.26738281 8.93890625 -4.35117188 9.8309375 -4.4375 10.75 C-4.51871094 11.63171875 -4.59992188 12.5134375 -4.68359375 13.421875 C-4.96238465 15.69350452 -5.38790577 17.79851823 -6 20 C-8 18 -8 18 -8.3125 14.8125 C-7.85609459 9.24435394 -6.47613416 5.47613416 -2.5 1.5 C-1.675 1.005 -0.85 0.51 0 0 Z " fill="#E68D7D" transform="translate(197,65)"/>
<path d="M0 0 C1.32 0.66 2.64 1.32 4 2 C3.835 2.5775 3.67 3.155 3.5 3.75 C2.56047386 7.97786765 3.23801579 11.80908684 4 16 C2.02 16 0.04 16 -2 16 C-1.50130596 10.63108121 -0.97772468 5.30764827 0 0 Z " fill="#C686ED" transform="translate(60,96)"/>
<path d="M0 0 C1.64722852 2.51557582 2.03330952 3.71714544 1.67626953 6.74902344 C1.41442871 7.77543945 1.15258789 8.80185547 0.8828125 9.859375 C0.46708984 11.53193359 0.46708984 11.53193359 0.04296875 13.23828125 C-0.25996094 14.39714844 -0.56289062 15.55601563 -0.875 16.75 C-1.17019531 17.92433594 -1.46539062 19.09867188 -1.76953125 20.30859375 C-2.50056365 23.20914164 -3.24445713 26.10575783 -4 29 C-4.33 29 -4.66 29 -5 29 C-5 25.04 -5 21.08 -5 17 C-4.34 17 -3.68 17 -3 17 C-2.87625 16.05125 -2.7525 15.1025 -2.625 14.125 C-1.95234946 9.37745198 -0.97271759 4.69359847 0 0 Z " fill="#B685C5" transform="translate(86,67)"/>
<path d="M0 0 C-1.375 2 -1.375 2 -3 4 C-3.66 4 -4.32 4 -5 4 C-5.33 4.66 -5.66 5.32 -6 6 C-6 5.34 -6 4.68 -6 4 C-7.98 4.99 -7.98 4.99 -10 6 C-10 5.34 -10 4.68 -10 4 C-11.98 4 -13.96 4 -16 4 C-16 3.34 -16 2.68 -16 2 C-14.27192682 1.66104344 -12.54248026 1.32908475 -10.8125 1 C-9.84957031 0.814375 -8.88664062 0.62875 -7.89453125 0.4375 C-5.2065794 0.03122388 -2.71228981 -0.07933572 0 0 Z " fill="#C984E4" transform="translate(80,42)"/>
<path d="M0 0 C0.99 0.66 1.98 1.32 3 2 C3.31845551 5.10494126 2.99424641 7.01726077 2 10 C0.68 9.34 -0.64 8.68 -2 8 C-1.67 7.34 -1.34 6.68 -1 6 C-1.66 6 -2.32 6 -3 6 C-3 4.35 -3 2.7 -3 1 C-2.01 0.67 -1.02 0.34 0 0 Z " fill="#CB8ADB" transform="translate(83,64)"/>
<path d="M0 0 C0.33 0 0.66 0 1 0 C1.33 2.97 1.66 5.94 2 9 C3.65 9.33 5.3 9.66 7 10 C7 10.66 7 11.32 7 12 C7.66 12.33 8.32 12.66 9 13 C6.15192856 13.87024405 4.5626834 14.21882132 1.75 13.125 C-0.94348 9.85434571 -1.03945252 6.15829565 -1 2 C-0.67 1.34 -0.34 0.68 0 0 Z " fill="#CE8F95" transform="translate(171,55)"/>
<path d="M0 0 C1.8871875 0.0309375 1.8871875 0.0309375 3.8125 0.0625 C3.4825 0.7225 3.1525 1.3825 2.8125 2.0625 C1.4821875 1.93875 1.4821875 1.93875 0.125 1.8125 C-3.91937485 2.11773584 -5.21727495 3.41338036 -8.1875 6.0625 C-9.1775 6.3925 -10.1675 6.7225 -11.1875 7.0625 C-12.41270264 10.07097418 -12.41270264 10.07097418 -13.1875 13.0625 C-13.5175 13.0625 -13.8475 13.0625 -14.1875 13.0625 C-13.94849616 6.96790206 -13.94849616 6.96790206 -11.890625 4.51953125 C-8.02870334 1.25983994 -4.98389184 -0.08170314 0 0 Z " fill="#C58CA2" transform="translate(152.1875,119.9375)"/>
<path d="M0 0 C0.33 0 0.66 0 1 0 C0.85820962 2.22942748 0.71140302 4.45853628 0.5625 6.6875 C0.48128906 7.92886719 0.40007812 9.17023438 0.31640625 10.44921875 C0.05508683 13.38180337 -0.34798379 16.13441617 -1 19 C0.98 19.33 2.96 19.66 5 20 C5 20.33 5 20.66 5 21 C2.36 21 -0.28 21 -3 21 C-2.69385143 17.87434338 -2.37900284 14.74962377 -2.0625 11.625 C-1.97548828 10.73554687 -1.88847656 9.84609375 -1.79882812 8.9296875 C-1.71181641 8.07890625 -1.62480469 7.228125 -1.53515625 6.3515625 C-1.456604 5.56604004 -1.37805176 4.78051758 -1.29711914 3.97119141 C-1 2 -1 2 0 0 Z " fill="#C78575" transform="translate(202,109)"/>
<path d="M0 0 C0.66 0.33 1.32 0.66 2 1 C1.01 2.485 1.01 2.485 0 4 C0 4.99 0 5.98 0 7 C-1.3125 9.625 -1.3125 9.625 -3 12 C-3.99 12.33 -4.98 12.66 -6 13 C-4.44191344 3.40546697 -4.44191344 3.40546697 0 0 Z " fill="#C587E4" transform="translate(71,65)"/>
<path d="M0 0 C-4.70477195 4.35038653 -9.19648374 8.21431219 -15 11 C-15.66 10.67 -16.32 10.34 -17 10 C-14.87229133 7.63587926 -13.37702905 6.14363011 -10.375 5 C-7.47413544 3.77858334 -7.25257221 2.77355275 -6 0 C-3 -1 -3 -1 0 0 Z " fill="#C68DB6" transform="translate(127,130)"/>
<path d="M0 0 C0.66 0 1.32 0 2 0 C1.34 3.96 0.68 7.92 0 12 C-0.99 12.33 -1.98 12.66 -3 13 C-3.33 13.99 -3.66 14.98 -4 16 C-4 15.34 -4 14.68 -4 14 C-4.66 14 -5.32 14 -6 14 C-6.33 12.68 -6.66 11.36 -7 10 C-6.01 9.67 -5.02 9.34 -4 9 C-3.34 9.33 -2.68 9.66 -2 10 C-1.34 6.7 -0.68 3.4 0 0 Z " fill="#F59244" transform="translate(264,96)"/>
<path d="M0 0 C0.99 0 1.98 0 3 0 C3.33 1.65 3.66 3.3 4 5 C3.01 5.33 2.02 5.66 1 6 C1 6.66 1 7.32 1 8 C1.66 8 2.32 8 3 8 C2.67 8.66 2.34 9.32 2 10 C-0.0625 10.625 -0.0625 10.625 -2 11 C-1.85892253 9.54119891 -1.71197585 8.08296449 -1.5625 6.625 C-1.48128906 5.81289062 -1.40007812 5.00078125 -1.31640625 4.1640625 C-1 2 -1 2 0 0 Z " fill="#E48D7E" transform="translate(187,86)"/>
<path d="M0 0 C0.66 0.66 1.32 1.32 2 2 C1.01 2.495 1.01 2.495 0 3 C0 2.01 0 1.02 0 0 Z M-3 3 C-2.01 3 -1.02 3 0 3 C-1.93617021 9.70212766 -1.93617021 9.70212766 -5 12 C-5.66 12 -6.32 12 -7 12 C-7.33 12.99 -7.66 13.98 -8 15 C-8.99 14.67 -9.98 14.34 -11 14 C-10.4225 13.484375 -9.845 12.96875 -9.25 12.4375 C-6.53063881 9.49152537 -4.89843408 6.52566329 -3 3 Z " fill="#C387B4" transform="translate(118,106)"/>
<path d="M0 0 C1.2375 0.185625 2.475 0.37125 3.75 0.5625 C6.76279577 0.94711223 9.10010827 1.0874594 12 0 C11.5 1.9375 11.5 1.9375 10 4 C7.30341548 4.68790422 4.7982981 4.81946464 2 5 C1.34 3.35 0.68 1.7 0 0 Z " fill="#BD8DEB" transform="translate(48,64)"/>
<path d="M0 0 C0.66 0 1.32 0 2 0 C2 0.99 2 1.98 2 3 C3.093125 2.773125 4.18625 2.54625 5.3125 2.3125 C9 2 9 2 10.9375 3.4375 C11.288125 3.953125 11.63875 4.46875 12 5 C10.02 5.99 10.02 5.99 8 7 C8 6.34 8 5.68 8 5 C5.03 5 2.06 5 -1 5 C-0.67 3.35 -0.34 1.7 0 0 Z " fill="#F28F56" transform="translate(233,41)"/>
<path d="M0 0 C0.78375 0.04125 1.5675 0.0825 2.375 0.125 C2.375 1.445 2.375 2.765 2.375 4.125 C-0.125 5.875 -0.125 5.875 -2.625 7.125 C-2.955 6.135 -3.285 5.145 -3.625 4.125 C-5.62516466 2.91617904 -5.62516466 2.91617904 -7.625 2.125 C-6.635 2.125 -5.645 2.125 -4.625 2.125 C-2.625 0.125 -2.625 0.125 0 0 Z " fill="#C285EE" transform="translate(61.625,135.875)"/>
<path d="M0 0 C0.66 0.66 1.32 1.32 2 2 C1.67 2.99 1.34 3.98 1 5 C0.34 5 -0.32 5 -1 5 C-1 5.99 -1 6.98 -1 8 C0.65 7.34 2.3 6.68 4 6 C4 7.32 4 8.64 4 10 C1.69 10.33 -0.62 10.66 -3 11 C-2.53199289 6.94393835 -2.12046792 3.53411321 0 0 Z " fill="#F29150" transform="translate(244,101)"/>
<path d="M0 0 C2.9375 0.8125 2.9375 0.8125 6 2 C7 5 7 5 6.0625 7.1875 C5.5365625 8.0846875 5.5365625 8.0846875 5 9 C1.9083091 6.47043472 1.09068668 3.77545388 0 0 Z " fill="#F3904F" transform="translate(241,64)"/>
<path d="M0 0 C2.97 1.98 2.97 1.98 6 4 C4.68 4.99 3.36 5.98 2 7 C1.67 6.34 1.34 5.68 1 5 C0.01 5 -0.98 5 -2 5 C-2 3.68 -2 2.36 -2 1 C-1.34 0.67 -0.68 0.34 0 0 Z " fill="#C688DC" transform="translate(75,128)"/>
<path d="M0 0 C2.31 0.33 4.62 0.66 7 1 C4.27835324 3.72164676 1.70485455 4.10572476 -2 5 C-3.32 5 -4.64 5 -6 5 C-5.67 4.01 -5.34 3.02 -5 2 C-3.02 2.495 -3.02 2.495 -1 3 C-0.67 2.01 -0.34 1.02 0 0 Z " fill="#E38E7D" transform="translate(195,56)"/>
<path d="M0 0 C1.65 0 3.3 0 5 0 C5 1.32 5 2.64 5 4 C3.35 4.33 1.7 4.66 0 5 C0 3.35 0 1.7 0 0 Z " fill="#C687E6" transform="translate(64,56)"/>
<path d="M0 0 C0.99 0.33 1.98 0.66 3 1 C2.34 3.64 1.68 6.28 1 9 C-0.32 8.01 -1.64 7.02 -3 6 C-2 3 -2 3 0 0 Z " fill="#C588DB" transform="translate(76,106)"/>
<path d="M0 0 C0.33 0 0.66 0 1 0 C1 1.65 1 3.3 1 5 C-0.32 5.33 -1.64 5.66 -3 6 C-3.33 7.65 -3.66 9.3 -4 11 C-4.33 11 -4.66 11 -5 11 C-5 8.03 -5 5.06 -5 2 C-2.525 2.495 -2.525 2.495 0 3 C0 2.01 0 1.02 0 0 Z " fill="#D289B7" transform="translate(127,80)"/>
<path d="M0 0 C0.99 0.33 1.98 0.66 3 1 C-2.39068413 4.59378942 -5.53673535 5.45356243 -12 5 C-12 4.67 -12 4.34 -12 4 C-11.38511719 3.87882813 -10.77023438 3.75765625 -10.13671875 3.6328125 C-9.32847656 3.46523437 -8.52023438 3.29765625 -7.6875 3.125 C-6.88699219 2.96257812 -6.08648437 2.80015625 -5.26171875 2.6328125 C-2.74698882 2.05521001 -2.74698882 2.05521001 0 0 Z " fill="#C18D9D" transform="translate(159,142)"/>
<path d="M0 0 C1.65 0 3.3 0 5 0 C5.33 1.65 5.66 3.3 6 5 C4.02 4.34 2.04 3.68 0 3 C0 2.01 0 1.02 0 0 Z " fill="#F59146" transform="translate(245,47)"/>
<path d="M0 0 C0.66 0.33 1.32 0.66 2 1 C2.625 3.0625 2.625 3.0625 3 5 C-0.75 8 -0.75 8 -3 8 C-2.690625 7.236875 -2.38125 6.47375 -2.0625 5.6875 C-1.32106407 3.81210323 -0.63771783 1.91315348 0 0 Z " fill="#D48CAA" transform="translate(140,88)"/>
<path d="M0 0 C1.85776765 3.13498292 2.20140476 5.37471432 2 9 C1.34 9 0.68 9 0 9 C-0.66 6.69 -1.32 4.38 -2 2 C-1.34 1.34 -0.68 0.68 0 0 Z " fill="#D58BAB" transform="translate(140,71)"/>
<path d="M0 0 C2.475 0.495 2.475 0.495 5 1 C5.33 2.65 5.66 4.3 6 6 C5.67 5.34 5.34 4.68 5 4 C4.01 4 3.02 4 2 4 C1.34 2.68 0.68 1.36 0 0 Z " fill="#F69242" transform="translate(257,60)"/>
<path d="M0 0 C0.66 0 1.32 0 2 0 C1.37240135 2.92879371 0.41377341 5.36095629 -1 8 C-1.66 7.67 -2.32 7.34 -3 7 C-1.125 2.25 -1.125 2.25 0 0 Z " fill="#F48F53" transform="translate(238,54)"/>
<path d="M0 0 C4.50802601 1.25805377 7.4912812 2.90407165 11 6 C2.7826087 4.17391304 2.7826087 4.17391304 0 0 Z " fill="#C48DB5" transform="translate(117,43)"/>
<path d="M0 0 C-0.66 1.32 -1.32 2.64 -2 4 C-3.65 4 -5.3 4 -7 4 C-7 3.34 -7 2.68 -7 2 C-4.35261084 0.5393715 -3.10551666 0 0 0 Z " fill="#D388C1" transform="translate(112,137)"/>
<path d="M0 0 C1.98 0 3.96 0 6 0 C5.67 1.65 5.34 3.3 5 5 C2 4 2 4 1 3 C0.67 2.01 0.34 1.02 0 0 Z " fill="#C186D2" transform="translate(77,129)"/>
</svg>
